<svg width="80" height="128" viewBox="0 0 80 128" fill="none" xmlns="http://www.w3.org/2000/svg">
<g clip-path="url(#clip0_1_41)">
<rect width="80" height="128" rx="5" fill="#2D2DF1"/>
<path d="M3.98413 -157L3.98414 135.999" stroke="#8080F3" stroke-width="0.271296"/>
<path d="M10.4951 -157L10.4951 135.999" stroke="#8080F3" stroke-width="0.271296"/>
<path d="M17.0063 -157L17.0063 135.999" stroke="#8080F3" stroke-width="0.271296"/>
<path d="M23.5174 -157L23.5174 135.999" stroke="#8080F3" stroke-width="0.271296"/>
<path d="M30.0284 -157L30.0285 135.999" stroke="#8080F3" stroke-width="0.271296"/>
<path d="M36.5397 -157L36.5397 135.999" stroke="#8080F3" stroke-width="0.271296"/>
<path d="M43.0508 -157L43.0508 135.999" stroke="#8080F3" stroke-width="0.271296"/>
<path d="M49.5619 -157L49.5619 135.999" stroke="#8080F3" stroke-width="0.271296"/>
<path d="M56.0729 -157L56.0729 135.999" stroke="#8080F3" stroke-width="0.271296"/>
<path d="M62.5841 -157L62.5841 135.999" stroke="#8080F3" stroke-width="0.271296"/>
<path d="M69.0952 -157L69.0952 135.999" stroke="#8080F3" stroke-width="0.271296"/>
<path d="M75.6062 -157L75.6062 135.999" stroke="#8080F3" stroke-width="0.271296"/>
<path d="M235.128 5.77783L-139.531 5.77783" stroke="#8080F3" stroke-width="0.271296"/>
<path d="M235.128 12.2889L-139.531 12.2889" stroke="#8080F3" stroke-width="0.271296"/>
<path d="M235.128 18.8L-139.531 18.8" stroke="#8080F3" stroke-width="0.271296"/>
<path d="M235.128 25.3111L-139.531 25.3111" stroke="#8080F3" stroke-width="0.271296"/>
<path d="M235.128 31.8222L-139.531 31.8222" stroke="#8080F3" stroke-width="0.271296"/>
<path d="M235.128 38.3333L-139.531 38.3333" stroke="#8080F3" stroke-width="0.271296"/>
<path d="M235.128 44.8445L-139.531 44.8445" stroke="#8080F3" stroke-width="0.271296"/>
<path d="M235.128 51.3556L-139.531 51.3556" stroke="#8080F3" stroke-width="0.271296"/>
<path d="M235.128 57.8667L-139.531 57.8667" stroke="#8080F3" stroke-width="0.271296"/>
<path d="M235.128 64.3778L-139.531 64.3778" stroke="#8080F3" stroke-width="0.271296"/>
<path d="M235.128 70.8889L-139.531 70.8889" stroke="#8080F3" stroke-width="0.271296"/>
<path d="M235.128 77.3999L-139.531 77.3999" stroke="#8080F3" stroke-width="0.271296"/>
<path d="M235.128 83.9111L-139.531 83.9111" stroke="#8080F3" stroke-width="0.271296"/>
<path d="M235.128 90.4222L-139.531 90.4222" stroke="#8080F3" stroke-width="0.271296"/>
<path d="M235.128 96.9334L-139.531 96.9334" stroke="#8080F3" stroke-width="0.271296"/>
<path d="M235.128 103.444L-139.531 103.444" stroke="#8080F3" stroke-width="0.271296"/>
<path d="M235.128 109.955L-139.531 109.955" stroke="#8080F3" stroke-width="0.271296"/>
<path d="M235.128 116.467L-139.531 116.467" stroke="#8080F3" stroke-width="0.271296"/>
<path d="M235.128 122.978L-139.531 122.978" stroke="#8080F3" stroke-width="0.271296"/>
<path d="M53.6239 82.6818C62.0021 79.1956 67.6812 72.7293 67.6812 65.307C67.6812 64.4074 66.9502 63.6764 66.0505 63.6764H58.9095C59.0781 61.877 59.2468 60.3589 59.2468 59.1218H20.7299C20.7299 60.3589 20.7862 61.877 21.0673 63.6764H13.7575C12.8579 63.6764 12.1269 64.4074 12.1269 65.307C12.1269 72.7855 17.8623 79.3081 26.2966 82.738C28.4895 87.1801 31.4697 90.835 35.4619 92.4656V103.149H34.2249C30.1764 103.149 24.3848 110.796 24.3848 113.664H55.367C55.367 110.74 49.6879 103.149 45.5269 103.149H44.2899V92.4656C48.3384 90.835 51.3748 87.1239 53.6239 82.6818ZM15.4444 66.9377H21.4609C22.0232 70.4801 22.9791 74.4724 24.3848 78.3522C19.4367 75.5407 16.1192 71.5484 15.4444 66.9377ZM55.4795 78.1835C56.829 74.3599 57.7286 70.4239 58.3472 66.9377H64.2512C63.6327 71.4922 60.3714 75.4282 55.4795 78.1835Z" fill="white"/>
<path fill-rule="evenodd" clip-rule="evenodd" d="M46.1928 35H49L46.2865 24.8496L48.2215 21.4825H45.383L44.1878 17H41.4193L31 35H34.1451L42.3868 20.7999L43.3781 24.4734L37.2917 35H40.4369L44.3694 28.2018L46.1942 35H46.1928Z" fill="white"/>
<path d="M41.7134 65.5999V82H38.3397V71.5273C38.1288 71.6211 37.8242 71.6445 37.4494 71.6445H34.7082V68.8565H37.1682C37.5665 68.8565 37.8711 68.7159 38.0819 68.3879C38.2928 68.0599 38.4099 67.6616 38.4099 67.193V65.5999H41.7134Z" fill="#2D2DF1"/>
</g>
<defs>
<clipPath id="clip0_1_41">
<rect width="80" height="128" rx="5" fill="white"/>
</clipPath>
</defs>
</svg>
