<svg width="80" height="80" viewBox="0 0 80 80" fill="none" xmlns="http://www.w3.org/2000/svg">
<g clip-path="url(#clip0_6_2041)">
<rect width="80" height="80" rx="5" fill="#2ECFCC"/>
<path d="M3.98413 -159L3.98414 133.999" stroke="#B9EFEE" stroke-width="0.271296"/>
<path d="M10.4951 -159L10.4951 133.999" stroke="#B9EFEE" stroke-width="0.271296"/>
<path d="M17.0063 -159L17.0063 133.999" stroke="#B9EFEE" stroke-width="0.271296"/>
<path d="M23.5174 -159L23.5174 133.999" stroke="#B9EFEE" stroke-width="0.271296"/>
<path d="M30.0284 -159L30.0285 133.999" stroke="#B9EFEE" stroke-width="0.271296"/>
<path d="M36.5397 -159L36.5397 133.999" stroke="#B9EFEE" stroke-width="0.271296"/>
<path d="M43.0508 -159L43.0508 133.999" stroke="#B9EFEE" stroke-width="0.271296"/>
<path d="M49.5619 -159L49.5619 133.999" stroke="#B9EFEE" stroke-width="0.271296"/>
<path d="M56.0729 -159L56.0729 133.999" stroke="#B9EFEE" stroke-width="0.271296"/>
<path d="M62.5841 -159L62.5841 133.999" stroke="#B9EFEE" stroke-width="0.271296"/>
<path d="M69.0952 -159L69.0952 133.999" stroke="#B9EFEE" stroke-width="0.271296"/>
<path d="M75.6062 -159L75.6062 133.999" stroke="#B9EFEE" stroke-width="0.271296"/>
<path d="M235.128 3.77783L-139.531 3.77783" stroke="#B9EFEE" stroke-width="0.271296"/>
<path d="M235.128 10.2889L-139.531 10.2889" stroke="#B9EFEE" stroke-width="0.271296"/>
<path d="M235.128 16.8L-139.531 16.8" stroke="#B9EFEE" stroke-width="0.271296"/>
<path d="M235.128 23.3112L-139.531 23.3112" stroke="#B9EFEE" stroke-width="0.271296"/>
<path d="M235.128 29.8222L-139.531 29.8222" stroke="#B9EFEE" stroke-width="0.271296"/>
<path d="M235.128 36.3334L-139.531 36.3334" stroke="#B9EFEE" stroke-width="0.271296"/>
<path d="M235.128 42.8445L-139.531 42.8445" stroke="#B9EFEE" stroke-width="0.271296"/>
<path d="M235.128 49.3556L-139.531 49.3556" stroke="#B9EFEE" stroke-width="0.271296"/>
<path d="M235.128 55.8667L-139.531 55.8667" stroke="#B9EFEE" stroke-width="0.271296"/>
<path d="M235.128 62.3778L-139.531 62.3778" stroke="#B9EFEE" stroke-width="0.271296"/>
<path d="M235.128 68.889L-139.531 68.889" stroke="#B9EFEE" stroke-width="0.271296"/>
<path d="M235.128 75.3999L-139.531 75.3999" stroke="#B9EFEE" stroke-width="0.271296"/>
<path d="M51.424 39.112C58.576 36.136 63.424 30.616 63.424 24.28C63.424 23.512 62.8 22.888 62.032 22.888H55.936C56.08 21.352 56.224 20.056 56.224 19H23.344C23.344 20.056 23.392 21.352 23.632 22.888H17.392C16.624 22.888 16 23.512 16 24.28C16 30.664 20.896 36.232 28.096 39.16C29.968 42.952 32.512 46.072 35.92 47.464V56.584H34.864C31.408 56.584 26.464 63.112 26.464 65.56H52.912C52.912 63.064 48.064 56.584 44.512 56.584H43.456V47.464C46.912 46.072 49.504 42.904 51.424 39.112ZM18.832 25.672H23.968C24.448 28.696 25.264 32.104 26.464 35.416C22.24 33.016 19.408 29.608 18.832 25.672ZM53.008 35.272C54.16 32.008 54.928 28.648 55.456 25.672H60.496C59.968 29.56 57.184 32.92 53.008 35.272Z" fill="#001324"/>
<path d="M44.5565 32.88C45.1165 33.44 45.4165 34.18 45.4165 35.1C45.4165 35.9 45.1765 36.62 44.7365 37.22C44.2965 37.82 43.6565 38.3 42.8365 38.62C41.9965 38.96 41.0365 39.12 39.9565 39.12C38.2765 39.12 36.9565 38.7 35.9965 37.86C35.0165 37.02 34.5365 35.84 34.5365 34.34H37.3965C37.3965 35.12 37.6565 35.74 38.1765 36.18C38.6765 36.64 39.3165 36.86 40.1165 36.86C40.7965 36.86 41.3565 36.68 41.7965 36.32C42.2365 35.96 42.4765 35.48 42.4765 34.86C42.4765 34.3 42.2565 33.86 41.8165 33.54C41.3765 33.22 40.7365 33.06 39.9165 33.06H38.5365V30.76H39.7565C40.5165 30.76 41.1165 30.6 41.5365 30.26C41.9565 29.92 42.1765 29.46 42.1765 28.88C42.1765 28.34 41.9765 27.92 41.5965 27.6C41.1965 27.3 40.6965 27.14 40.0765 27.14C39.3965 27.14 38.8365 27.34 38.3965 27.7C37.9565 28.08 37.7165 28.58 37.7165 29.22H34.8965C34.8965 27.88 35.3565 26.82 36.2765 26.04C37.1965 25.28 38.4165 24.88 39.9565 24.88C41.5565 24.88 42.8165 25.22 43.7165 25.9C44.6165 26.58 45.0765 27.5 45.0765 28.62C45.0765 29.46 44.8165 30.12 44.3165 30.64C43.8165 31.16 43.1565 31.52 42.3365 31.72C43.2365 31.94 43.9765 32.32 44.5565 32.88Z" fill="#2ECFCC"/>
</g>
<defs>
<clipPath id="clip0_6_2041">
<rect width="80" height="80" rx="5" fill="white"/>
</clipPath>
</defs>
</svg>
