<svg width="80" height="96" viewBox="0 0 80 96" fill="none" xmlns="http://www.w3.org/2000/svg">
<g clip-path="url(#clip0_1_45)">
<rect width="80" height="96" rx="5" fill="#5858F0"/>
<path d="M3.98413 -156L3.98414 136.999" stroke="#9595F5" stroke-width="0.271296"/>
<path d="M10.4951 -156L10.4951 136.999" stroke="#9595F5" stroke-width="0.271296"/>
<path d="M17.0063 -156L17.0063 136.999" stroke="#9595F5" stroke-width="0.271296"/>
<path d="M23.5174 -156L23.5174 136.999" stroke="#9595F5" stroke-width="0.271296"/>
<path d="M30.0284 -156L30.0285 136.999" stroke="#9595F5" stroke-width="0.271296"/>
<path d="M36.5397 -156L36.5397 136.999" stroke="#9595F5" stroke-width="0.271296"/>
<path d="M43.0508 -156L43.0508 136.999" stroke="#9595F5" stroke-width="0.271296"/>
<path d="M49.5619 -156L49.5619 136.999" stroke="#9595F5" stroke-width="0.271296"/>
<path d="M56.0729 -156L56.0729 136.999" stroke="#9595F5" stroke-width="0.271296"/>
<path d="M62.5841 -156L62.5841 136.999" stroke="#9595F5" stroke-width="0.271296"/>
<path d="M69.0952 -156L69.0952 136.999" stroke="#9595F5" stroke-width="0.271296"/>
<path d="M75.6062 -156L75.6062 136.999" stroke="#9595F5" stroke-width="0.271296"/>
<path d="M235.128 0.266693L-139.531 0.266693" stroke="#9595F5" stroke-width="0.271296"/>
<path d="M235.128 6.77783L-139.531 6.77783" stroke="#9595F5" stroke-width="0.271296"/>
<path d="M235.128 13.2889L-139.531 13.2889" stroke="#9595F5" stroke-width="0.271296"/>
<path d="M235.128 19.8L-139.531 19.8" stroke="#9595F5" stroke-width="0.271296"/>
<path d="M235.128 26.3111L-139.531 26.3111" stroke="#9595F5" stroke-width="0.271296"/>
<path d="M235.128 32.8222L-139.531 32.8222" stroke="#9595F5" stroke-width="0.271296"/>
<path d="M235.128 39.3333L-139.531 39.3333" stroke="#9595F5" stroke-width="0.271296"/>
<path d="M235.128 45.8445L-139.531 45.8445" stroke="#9595F5" stroke-width="0.271296"/>
<path d="M235.128 52.3556L-139.531 52.3556" stroke="#9595F5" stroke-width="0.271296"/>
<path d="M235.128 58.8667L-139.531 58.8667" stroke="#9595F5" stroke-width="0.271296"/>
<path d="M235.128 65.3778L-139.531 65.3778" stroke="#9595F5" stroke-width="0.271296"/>
<path d="M235.128 71.8889L-139.531 71.8889" stroke="#9595F5" stroke-width="0.271296"/>
<path d="M235.128 78.3999L-139.531 78.3999" stroke="#9595F5" stroke-width="0.271296"/>
<path d="M235.128 84.9111L-139.531 84.9111" stroke="#9595F5" stroke-width="0.271296"/>
<path d="M235.128 91.4222L-139.531 91.4222" stroke="#9595F5" stroke-width="0.271296"/>
<path d="M51.424 55.112C58.576 52.136 63.424 46.616 63.424 40.28C63.424 39.512 62.8 38.888 62.032 38.888H55.936C56.08 37.352 56.224 36.056 56.224 35H23.344C23.344 36.056 23.392 37.352 23.632 38.888H17.392C16.624 38.888 16 39.512 16 40.28C16 46.664 20.896 52.232 28.096 55.16C29.968 58.952 32.512 62.072 35.92 63.464V72.584H34.864C31.408 72.584 26.464 79.112 26.464 81.56H52.912C52.912 79.064 48.064 72.584 44.512 72.584H43.456V63.464C46.912 62.072 49.504 58.904 51.424 55.112ZM18.832 41.672H23.968C24.448 44.696 25.264 48.104 26.464 51.416C22.24 49.016 19.408 45.608 18.832 41.672ZM53.008 51.272C54.16 48.008 54.928 44.648 55.456 41.672H60.496C59.968 45.56 57.184 48.92 53.008 51.272Z" fill="white"/>
<path d="M40.1583 48.38C40.8383 47.84 41.3383 47.34 41.6583 46.88C41.9783 46.44 42.1383 45.94 42.1383 45.4C42.1383 44.72 41.9183 44.2 41.5183 43.84C41.1183 43.48 40.5783 43.28 39.8983 43.28C39.2383 43.28 38.6983 43.5 38.2983 43.94C37.8983 44.38 37.6983 44.98 37.6983 45.72V45.94H34.7983V45.56C34.7983 44.68 34.9983 43.88 35.4183 43.16C35.8383 42.44 36.4383 41.88 37.2183 41.48C37.9783 41.08 38.8783 40.86 39.8983 40.86C41.5383 40.86 42.7983 41.26 43.6983 42.06C44.5983 42.86 45.0583 43.94 45.0583 45.28C45.0583 46.24 44.8183 47.08 44.3383 47.78C43.8583 48.48 43.1383 49.22 42.1583 50.02L39.0183 52.58H45.1183V55H34.8583V52.78L40.1583 48.38Z" fill="#5858F0"/>
</g>
<defs>
<clipPath id="clip0_1_45">
<rect width="80" height="96" rx="5" fill="white"/>
</clipPath>
</defs>
</svg>
